<svg width="64" height="64" viewBox="0 0 64 64" fill="none" xmlns="http://www.w3.org/2000/svg">
<path d="M48 9H16C13.7909 9 12 10.7909 12 13V59C12 61.2091 13.7909 63 16 63H48C50.2091 63 52 61.2091 52 59V13C52 10.7909 50.2091 9 48 9Z" stroke="#322153" stroke-width="2"/>
<path d="M22 5C22 2.23858 24.2386 0 27 0H37C39.7614 0 42 2.23858 42 5V10H22V5Z" fill="#EDD65B"/>
<path d="M23 5C23 2.79086 24.7909 1 27 1H37C39.2091 1 41 2.79086 41 5V9H23V5Z" stroke="#322153" stroke-width="2"/>
<path d="M23 38.8261L32 22V32.1739H41L32 49V38.8261H23Z" fill="#EDD65B"/>
<path d="M23 38.8261L32 22V32.1739H41L32 49V38.8261H23Z" stroke="#322153" stroke-width="2" stroke-linejoin="round"/>
<path d="M12 14H53" stroke="#322153" stroke-width="2"/>
<path d="M12 58H53" stroke="#322153" stroke-width="2"/>
</svg>
